<svg xmlns="http://www.w3.org/2000/svg" xmlns:xlink="http://www.w3.org/1999/xlink" viewBox="0 0 80 80" width="80px" height="80px"><g id="surface119299364"><path style=" stroke:none;fill-rule:nonzero;fill:rgb(29.803923%,65.882355%,96.862745%);fill-opacity:1;" d="M 55 9 L 55 69 L 48 69 L 48 28 L 32 28 L 32 69 L 25 69 L 25 19 L 9 19 L 9 69 L 5 69 L 5 71 L 75 71 L 75 69 L 71 69 L 71 9 Z M 57 11 L 69 11 L 69 69 L 57 69 Z M 63 14 C 62.449219 14 62 14.449219 62 15 C 62 15.550781 62.449219 16 63 16 C 63.550781 16 64 15.550781 64 15 C 64 14.449219 63.550781 14 63 14 Z M 60 17 C 59.449219 17 59 17.449219 59 18 C 59 18.550781 59.449219 19 60 19 C 60.550781 19 61 18.550781 61 18 C 61 17.449219 60.550781 17 60 17 Z M 66 17 C 65.449219 17 65 17.449219 65 18 C 65 18.550781 65.449219 19 66 19 C 66.550781 19 67 18.550781 67 18 C 67 17.449219 66.550781 17 66 17 Z M 63 20 C 62.449219 20 62 20.449219 62 21 C 62 21.550781 62.449219 22 63 22 C 63.550781 22 64 21.550781 64 21 C 64 20.449219 63.550781 20 63 20 Z M 11 21 L 23 21 L 23 69 L 11 69 Z M 14 23 C 13.449219 23 13 23.449219 13 24 C 13 24.550781 13.449219 25 14 25 C 14.550781 25 15 24.550781 15 24 C 15 23.449219 14.550781 23 14 23 Z M 20 23 C 19.449219 23 19 23.449219 19 24 C 19 24.550781 19.449219 25 20 25 C 20.550781 25 21 24.550781 21 24 C 21 23.449219 20.550781 23 20 23 Z M 60 23 C 59.449219 23 59 23.449219 59 24 C 59 24.550781 59.449219 25 60 25 C 60.550781 25 61 24.550781 61 24 C 61 23.449219 60.550781 23 60 23 Z M 66 23 C 65.449219 23 65 23.449219 65 24 C 65 24.550781 65.449219 25 66 25 C 66.550781 25 67 24.550781 67 24 C 67 23.449219 66.550781 23 66 23 Z M 17 26 C 16.449219 26 16 26.449219 16 27 C 16 27.550781 16.449219 28 17 28 C 17.550781 28 18 27.550781 18 27 C 18 26.449219 17.550781 26 17 26 Z M 63 26 C 62.449219 26 62 26.449219 62 27 C 62 27.550781 62.449219 28 63 28 C 63.550781 28 64 27.550781 64 27 C 64 26.449219 63.550781 26 63 26 Z M 14 29 C 13.449219 29 13 29.449219 13 30 C 13 30.550781 13.449219 31 14 31 C 14.550781 31 15 30.550781 15 30 C 15 29.449219 14.550781 29 14 29 Z M 20 29 C 19.449219 29 19 29.449219 19 30 C 19 30.550781 19.449219 31 20 31 C 20.550781 31 21 30.550781 21 30 C 21 29.449219 20.550781 29 20 29 Z M 60 29 C 59.449219 29 59 29.449219 59 30 C 59 30.550781 59.449219 31 60 31 C 60.550781 31 61 30.550781 61 30 C 61 29.449219 60.550781 29 60 29 Z M 66 29 C 65.449219 29 65 29.449219 65 30 C 65 30.550781 65.449219 31 66 31 C 66.550781 31 67 30.550781 67 30 C 67 29.449219 66.550781 29 66 29 Z M 34 30 L 46 30 L 46 69 L 34 69 Z M 17 32 C 16.449219 32 16 32.449219 16 33 C 16 33.550781 16.449219 34 17 34 C 17.550781 34 18 33.550781 18 33 C 18 32.449219 17.550781 32 17 32 Z M 63 32 C 62.449219 32 62 32.449219 62 33 C 62 33.550781 62.449219 34 63 34 C 63.550781 34 64 33.550781 64 33 C 64 32.449219 63.550781 32 63 32 Z M 14 35 C 13.449219 35 13 35.449219 13 36 C 13 36.550781 13.449219 37 14 37 C 14.550781 37 15 36.550781 15 36 C 15 35.449219 14.550781 35 14 35 Z M 20 35 C 19.449219 35 19 35.449219 19 36 C 19 36.550781 19.449219 37 20 37 C 20.550781 37 21 36.550781 21 36 C 21 35.449219 20.550781 35 20 35 Z M 60 35 C 59.449219 35 59 35.449219 59 36 C 59 36.550781 59.449219 37 60 37 C 60.550781 37 61 36.550781 61 36 C 61 35.449219 60.550781 35 60 35 Z M 66 35 C 65.449219 35 65 35.449219 65 36 C 65 36.550781 65.449219 37 66 37 C 66.550781 37 67 36.550781 67 36 C 67 35.449219 66.550781 35 66 35 Z M 17 38 C 16.449219 38 16 38.449219 16 39 C 16 39.550781 16.449219 40 17 40 C 17.550781 40 18 39.550781 18 39 C 18 38.449219 17.550781 38 17 38 Z M 63 38 C 62.449219 38 62 38.449219 62 39 C 62 39.550781 62.449219 40 63 40 C 63.550781 40 64 39.550781 64 39 C 64 38.449219 63.550781 38 63 38 Z M 14 41 C 13.449219 41 13 41.449219 13 42 C 13 42.550781 13.449219 43 14 43 C 14.550781 43 15 42.550781 15 42 C 15 41.449219 14.550781 41 14 41 Z M 20 41 C 19.449219 41 19 41.449219 19 42 C 19 42.550781 19.449219 43 20 43 C 20.550781 43 21 42.550781 21 42 C 21 41.449219 20.550781 41 20 41 Z M 60 41 C 59.449219 41 59 41.449219 59 42 C 59 42.550781 59.449219 43 60 43 C 60.550781 43 61 42.550781 61 42 C 61 41.449219 60.550781 41 60 41 Z M 66 41 C 65.449219 41 65 41.449219 65 42 C 65 42.550781 65.449219 43 66 43 C 66.550781 43 67 42.550781 67 42 C 67 41.449219 66.550781 41 66 41 Z M 17 44 C 16.449219 44 16 44.449219 16 45 C 16 45.550781 16.449219 46 17 46 C 17.550781 46 18 45.550781 18 45 C 18 44.449219 17.550781 44 17 44 Z M 63 44 C 62.449219 44 62 44.449219 62 45 C 62 45.550781 62.449219 46 63 46 C 63.550781 46 64 45.550781 64 45 C 64 44.449219 63.550781 44 63 44 Z M 14 47 C 13.449219 47 13 47.449219 13 48 C 13 48.550781 13.449219 49 14 49 C 14.550781 49 15 48.550781 15 48 C 15 47.449219 14.550781 47 14 47 Z M 20 47 C 19.449219 47 19 47.449219 19 48 C 19 48.550781 19.449219 49 20 49 C 20.550781 49 21 48.550781 21 48 C 21 47.449219 20.550781 47 20 47 Z M 60 47 C 59.449219 47 59 47.449219 59 48 C 59 48.550781 59.449219 49 60 49 C 60.550781 49 61 48.550781 61 48 C 61 47.449219 60.550781 47 60 47 Z M 66 47 C 65.449219 47 65 47.449219 65 48 C 65 48.550781 65.449219 49 66 49 C 66.550781 49 67 48.550781 67 48 C 67 47.449219 66.550781 47 66 47 Z M 17 50 C 16.449219 50 16 50.449219 16 51 C 16 51.550781 16.449219 52 17 52 C 17.550781 52 18 51.550781 18 51 C 18 50.449219 17.550781 50 17 50 Z M 63 50 C 62.449219 50 62 50.449219 62 51 C 62 51.550781 62.449219 52 63 52 C 63.550781 52 64 51.550781 64 51 C 64 50.449219 63.550781 50 63 50 Z M 14 53 C 13.449219 53 13 53.449219 13 54 C 13 54.550781 13.449219 55 14 55 C 14.550781 55 15 54.550781 15 54 C 15 53.449219 14.550781 53 14 53 Z M 20 53 C 19.449219 53 19 53.449219 19 54 C 19 54.550781 19.449219 55 20 55 C 20.550781 55 21 54.550781 21 54 C 21 53.449219 20.550781 53 20 53 Z M 60 53 C 59.449219 53 59 53.449219 59 54 C 59 54.550781 59.449219 55 60 55 C 60.550781 55 61 54.550781 61 54 C 61 53.449219 60.550781 53 60 53 Z M 66 53 C 65.449219 53 65 53.449219 65 54 C 65 54.550781 65.449219 55 66 55 C 66.550781 55 67 54.550781 67 54 C 67 53.449219 66.550781 53 66 53 Z M 17 56 C 16.449219 56 16 56.449219 16 57 C 16 57.550781 16.449219 58 17 58 C 17.550781 58 18 57.550781 18 57 C 18 56.449219 17.550781 56 17 56 Z M 63 56 C 62.449219 56 62 56.449219 62 57 C 62 57.550781 62.449219 58 63 58 C 63.550781 58 64 57.550781 64 57 C 64 56.449219 63.550781 56 63 56 Z M 14 59 C 13.449219 59 13 59.449219 13 60 C 13 60.550781 13.449219 61 14 61 C 14.550781 61 15 60.550781 15 60 C 15 59.449219 14.550781 59 14 59 Z M 20 59 C 19.449219 59 19 59.449219 19 60 C 19 60.550781 19.449219 61 20 61 C 20.550781 61 21 60.550781 21 60 C 21 59.449219 20.550781 59 20 59 Z M 60 59 C 59.449219 59 59 59.449219 59 60 C 59 60.550781 59.449219 61 60 61 C 60.550781 61 61 60.550781 61 60 C 61 59.449219 60.550781 59 60 59 Z M 66 59 C 65.449219 59 65 59.449219 65 60 C 65 60.550781 65.449219 61 66 61 C 66.550781 61 67 60.550781 67 60 C 67 59.449219 66.550781 59 66 59 Z M 17 62 C 16.449219 62 16 62.449219 16 63 C 16 63.550781 16.449219 64 17 64 C 17.550781 64 18 63.550781 18 63 C 18 62.449219 17.550781 62 17 62 Z M 63 62 C 62.449219 62 62 62.449219 62 63 C 62 63.550781 62.449219 64 63 64 C 63.550781 64 64 63.550781 64 63 C 64 62.449219 63.550781 62 63 62 Z M 14 65 C 13.449219 65 13 65.449219 13 66 C 13 66.550781 13.449219 67 14 67 C 14.550781 67 15 66.550781 15 66 C 15 65.449219 14.550781 65 14 65 Z M 20 65 C 19.449219 65 19 65.449219 19 66 C 19 66.550781 19.449219 67 20 67 C 20.550781 67 21 66.550781 21 66 C 21 65.449219 20.550781 65 20 65 Z M 60 65 C 59.449219 65 59 65.449219 59 66 C 59 66.550781 59.449219 67 60 67 C 60.550781 67 61 66.550781 61 66 C 61 65.449219 60.550781 65 60 65 Z M 66 65 C 65.449219 65 65 65.449219 65 66 C 65 66.550781 65.449219 67 66 67 C 66.550781 67 67 66.550781 67 66 C 67 65.449219 66.550781 65 66 65 Z M 66 65 "></path></g></svg>