<svg xmlns="http://www.w3.org/2000/svg" xmlns:xlink="http://www.w3.org/1999/xlink" viewBox="0 0 80 80" width="80px" height="80px"><g id="surface119131754"><path style=" stroke:none;fill-rule:nonzero;fill:rgb(29.803923%,65.882355%,96.862745%);fill-opacity:1;" d="M 21 11 C 17.699219 11 15 13.699219 15 17 L 15 43 L 5 43 L 5 49 C 5 52.300781 7.699219 55 11 55 L 24 55 L 24 70 C 24 70.347656 24.179688 70.667969 24.472656 70.851562 C 24.769531 71.03125 25.136719 71.050781 25.445312 70.894531 C 26.605469 70.3125 27.765625 69.734375 28.929688 69.15625 C 29.765625 69.714844 30.605469 70.273438 31.445312 70.832031 C 31.78125 71.054688 32.21875 71.054688 32.554688 70.832031 C 33.371094 70.289062 34.183594 69.746094 35 69.203125 C 35.816406 69.746094 36.628906 70.289062 37.445312 70.832031 C 37.78125 71.054688 38.21875 71.054688 38.554688 70.832031 C 39.371094 70.289062 40.183594 69.746094 41 69.203125 C 41.816406 69.746094 42.628906 70.289062 43.445312 70.832031 C 43.78125 71.054688 44.21875 71.054688 44.554688 70.832031 C 45.371094 70.289062 46.183594 69.746094 47 69.203125 C 47.816406 69.746094 48.628906 70.289062 49.445312 70.832031 C 49.78125 71.054688 50.21875 71.054688 50.554688 70.832031 C 51.394531 70.273438 52.234375 69.714844 53.070312 69.15625 C 54.234375 69.734375 55.394531 70.3125 56.554688 70.894531 C 56.863281 71.050781 57.230469 71.03125 57.527344 70.851562 C 57.820312 70.667969 58 70.347656 58 70 L 58 46 C 58 45.964844 58 45.933594 57.996094 45.898438 C 58.457031 45.957031 58.929688 46 59.429688 46 C 66.878906 46 72.929688 39.949219 72.929688 32.5 C 72.929688 25.050781 66.878906 19 59.429688 19 C 58.957031 19 58.476562 19.027344 58 19.082031 L 58 17 C 58 13.699219 55.300781 11 52 11 Z M 21 13 L 47.542969 13 C 46.589844 14.0625 46 15.464844 46 17 L 46 49 C 46 51.21875 44.21875 53 42 53 C 39.78125 53 38 51.21875 38 49 L 38 43 L 22.730469 43 C 23.085938 42.382812 23.085938 41.621094 22.730469 41 C 22.371094 40.382812 21.714844 40 21 40 C 20.285156 40 19.625 40.382812 19.269531 41 C 18.910156 41.617188 18.910156 42.382812 19.265625 43 L 17 43 L 17 17 C 17 14.78125 18.78125 13 21 13 Z M 52 13 C 54.21875 13 56 14.78125 56 17 L 56 19.058594 C 55.628906 19.027344 55.261719 19 54.882812 19 C 52.371094 19 50.015625 19.691406 48 20.886719 L 48 17 C 48 14.78125 49.78125 13 52 13 Z M 27 17 L 27 19 L 42 19 L 42 17 Z M 21 18 C 19.894531 18 19 18.894531 19 20 C 19 21.105469 19.894531 22 21 22 C 22.105469 22 23 21.105469 23 20 C 23 18.894531 22.105469 18 21 18 Z M 27 21 L 27 23 L 35 23 L 35 21 Z M 54.882812 21 C 55.582031 21 56.261719 21.074219 56.929688 21.191406 C 56.960938 21.199219 56.996094 21.207031 57.035156 21.210938 C 59.5 21.675781 61.683594 22.914062 63.320312 24.679688 C 63.5625 24.949219 63.929688 25.066406 64.28125 24.992188 C 64.636719 24.914062 64.917969 24.648438 65.023438 24.304688 C 65.128906 23.957031 65.039062 23.582031 64.789062 23.320312 C 64.148438 22.628906 63.433594 22.007812 62.660156 21.464844 C 67.445312 22.855469 70.929688 27.253906 70.929688 32.5 C 70.929688 37.746094 67.445312 42.144531 62.660156 43.535156 C 63.433594 42.992188 64.148438 42.371094 64.789062 41.679688 C 65.058594 41.394531 65.136719 40.976562 64.988281 40.609375 C 64.839844 40.246094 64.488281 40.003906 64.097656 39.988281 C 63.800781 39.980469 63.515625 40.101562 63.320312 40.320312 C 61.722656 42.042969 59.601562 43.273438 57.210938 43.761719 C 57.0625 43.753906 56.917969 43.777344 56.785156 43.828125 C 56.164062 43.933594 55.53125 44 54.882812 44 C 52.410156 44 50.132812 43.226562 48.261719 41.910156 C 48.183594 41.851562 48.09375 41.800781 48 41.765625 L 48 23.269531 C 48.039062 23.246094 48.078125 23.222656 48.117188 23.191406 C 50.015625 21.8125 52.347656 21 54.882812 21 Z M 53.746094 24.542969 L 53.746094 26.558594 C 50.738281 27.0625 50.640625 29.734375 50.640625 30.050781 C 50.640625 32.863281 52.917969 33.371094 54.75 33.78125 C 56.394531 34.148438 57.320312 34.414062 57.320312 35.519531 C 57.320312 36.179688 57.003906 37.292969 54.882812 37.292969 C 54.835938 37.292969 53.734375 37.285156 53.042969 36.59375 C 52.636719 36.1875 52.441406 35.597656 52.460938 34.84375 L 52.460938 34.773438 L 50.351562 34.773438 L 50.351562 34.84375 C 50.421875 37.230469 51.535156 38.59375 53.746094 39.015625 L 53.746094 40.453125 L 56.015625 40.453125 L 56.015625 39.050781 C 59.253906 38.527344 59.425781 36.019531 59.425781 35.503906 C 59.429688 32.785156 57.148438 32.261719 55.320312 31.839844 C 53.675781 31.464844 52.746094 31.199219 52.746094 30.160156 C 52.746094 28.917969 53.4375 28.335938 54.914062 28.335938 C 56.523438 28.335938 56.949219 29.324219 57.003906 30.226562 L 59.113281 30.226562 C 59.113281 29.34375 58.757812 28.398438 58.125 27.707031 C 57.574219 27.105469 56.851562 26.714844 56.015625 26.558594 L 56.015625 24.542969 Z M 65.644531 25.15625 L 64.84375 25.558594 L 64.683594 26.441406 L 65.296875 27.09375 L 65.644531 27.15625 L 66.445312 26.753906 L 66.605469 25.871094 L 65.992188 25.21875 Z M 27 28 L 27 30 L 42 30 L 42 28 Z M 67.09375 28.863281 L 66.292969 29.265625 L 66.136719 30.144531 L 66.746094 30.800781 L 67.09375 30.863281 L 67.894531 30.460938 L 68.054688 29.582031 L 67.441406 28.925781 Z M 21 29 C 19.894531 29 19 29.894531 19 31 C 19 32.105469 19.894531 33 21 33 C 22.105469 33 23 32.105469 23 31 C 23 29.894531 22.105469 29 21 29 Z M 27 32 L 27 34 L 35 34 L 35 32 Z M 67.308594 32.839844 L 66.503906 33.242188 L 66.347656 34.121094 L 66.960938 34.777344 L 67.308594 34.839844 L 68.109375 34.441406 L 68.265625 33.558594 L 67.652344 32.902344 Z M 66.25 36.679688 L 65.449219 37.082031 L 65.289062 37.964844 L 65.902344 38.617188 L 66.25 38.679688 L 67.050781 38.277344 L 67.207031 37.394531 L 66.597656 36.742188 Z M 27 39 L 27 41 L 42 41 L 42 39 Z M 48 44.117188 C 50.015625 45.3125 52.371094 46 54.882812 46 C 55.261719 46 55.632812 45.972656 56.003906 45.941406 C 56 45.960938 56 45.980469 56 46 L 56 68.382812 C 55.148438 67.957031 54.296875 67.53125 53.445312 67.105469 C 53.125 66.945312 52.742188 66.96875 52.445312 67.167969 C 51.628906 67.710938 50.816406 68.253906 50 68.800781 C 49.183594 68.253906 48.371094 67.710938 47.554688 67.167969 C 47.21875 66.945312 46.78125 66.945312 46.445312 67.167969 C 45.628906 67.710938 44.816406 68.253906 44 68.800781 C 43.183594 68.253906 42.371094 67.710938 41.554688 67.167969 C 41.21875 66.945312 40.78125 66.945312 40.445312 67.167969 C 39.628906 67.710938 38.816406 68.253906 38 68.800781 C 37.183594 68.253906 36.371094 67.710938 35.554688 67.167969 C 35.21875 66.945312 34.78125 66.945312 34.445312 67.167969 C 33.628906 67.710938 32.816406 68.253906 32 68.800781 C 31.183594 68.253906 30.371094 67.710938 29.554688 67.167969 C 29.257812 66.96875 28.875 66.945312 28.554688 67.105469 C 27.703125 67.53125 26.851562 67.957031 26 68.382812 L 26 55 L 42 55 C 45.300781 55 48 52.300781 48 49 Z M 7 45 L 36 45 L 36 49 C 36 50.535156 36.589844 51.9375 37.542969 53 L 25.167969 53 C 25.058594 52.980469 24.949219 52.980469 24.839844 53 L 11 53 C 8.78125 53 7 51.21875 7 49 Z M 7 45 "></path></g></svg>