<svg xmlns="http://www.w3.org/2000/svg" xmlns:xlink="http://www.w3.org/1999/xlink" viewBox="0 0 80 80" width="80px" height="80px"><g id="surface119030217"><path style=" stroke:none;fill-rule:nonzero;fill:rgb(29.803923%,65.882355%,96.862745%);fill-opacity:1;" d="M 25 10 C 22.800781 10 21 11.800781 21 14 L 21 66 C 21 68.199219 22.800781 70 25 70 L 55 70 C 57.199219 70 59 68.199219 59 66 L 59 14 C 59 11.800781 57.199219 10 55 10 Z M 25 12 L 55 12 C 56.117188 12 57 12.882812 57 14 L 57 18 L 23 18 L 23 14 C 23 12.882812 23.882812 12 25 12 Z M 36 14 C 35.640625 13.996094 35.304688 14.183594 35.121094 14.496094 C 34.941406 14.808594 34.941406 15.191406 35.121094 15.503906 C 35.304688 15.816406 35.640625 16.003906 36 16 L 44 16 C 44.359375 16.003906 44.695312 15.816406 44.878906 15.503906 C 45.058594 15.191406 45.058594 14.808594 44.878906 14.496094 C 44.695312 14.183594 44.359375 13.996094 44 14 Z M 31.949219 14 C 31.398438 14 30.949219 14.449219 30.949219 15 C 30.945312 15.550781 31.394531 16 31.945312 16 C 32.210938 16.003906 32.464844 15.898438 32.652344 15.710938 C 32.839844 15.523438 32.949219 15.265625 32.949219 15 C 32.949219 14.449219 32.5 14.003906 31.949219 14 Z M 14 15 C 11.800781 15 10 16.800781 10 19 L 10 62 C 10 64.199219 11.800781 66 14 66 L 19 66 L 19 64 L 14 64 C 12.882812 64 12 63.117188 12 62 L 12 19 C 12 17.882812 12.882812 17 14 17 L 19 17 L 19 15 Z M 61 15 L 61 17 L 66 17 C 67.117188 17 68 17.882812 68 19 L 68 62 C 68 63.117188 67.117188 64 66 64 L 61 64 L 61 66 L 66 66 C 68.199219 66 70 64.199219 70 62 L 70 19 C 70 16.800781 68.199219 15 66 15 Z M 23 20 L 57 20 L 57 58 L 23 58 Z M 27 22 C 26.449219 22 26 22.449219 26 23 C 26 23.550781 26.449219 24 27 24 C 27.550781 24 28 23.550781 28 23 C 28 22.449219 27.550781 22 27 22 Z M 16 23 C 15.449219 23 15 23.449219 15 24 C 15 24.550781 15.449219 25 16 25 C 16.550781 25 17 24.550781 17 24 C 17 23.449219 16.550781 23 16 23 Z M 27 26 C 26.449219 26 26 26.449219 26 27 C 26 27.550781 26.449219 28 27 28 C 27.550781 28 28 27.550781 28 27 C 28 26.449219 27.550781 26 27 26 Z M 16 27 C 15.449219 27 15 27.449219 15 28 C 15 28.550781 15.449219 29 16 29 C 16.550781 29 17 28.550781 17 28 C 17 27.449219 16.550781 27 16 27 Z M 27 30 C 26.449219 30 26 30.449219 26 31 C 26 31.550781 26.449219 32 27 32 C 27.550781 32 28 31.550781 28 31 C 28 30.449219 27.550781 30 27 30 Z M 16 31 C 15.449219 31 15 31.449219 15 32 C 15 32.550781 15.449219 33 16 33 C 16.550781 33 17 32.550781 17 32 C 17 31.449219 16.550781 31 16 31 Z M 27 34 C 26.449219 34 26 34.449219 26 35 C 26 35.550781 26.449219 36 27 36 C 27.550781 36 28 35.550781 28 35 C 28 34.449219 27.550781 34 27 34 Z M 16 35 C 15.449219 35 15 35.449219 15 36 C 15 36.550781 15.449219 37 16 37 C 16.550781 37 17 36.550781 17 36 C 17 35.449219 16.550781 35 16 35 Z M 27 38 C 26.449219 38 26 38.449219 26 39 C 26 39.550781 26.449219 40 27 40 C 27.550781 40 28 39.550781 28 39 C 28 38.449219 27.550781 38 27 38 Z M 16 39 C 15.449219 39 15 39.449219 15 40 C 15 40.550781 15.449219 41 16 41 C 16.550781 41 17 40.550781 17 40 C 17 39.449219 16.550781 39 16 39 Z M 27 42 C 26.449219 42 26 42.449219 26 43 C 26 43.550781 26.449219 44 27 44 C 27.550781 44 28 43.550781 28 43 C 28 42.449219 27.550781 42 27 42 Z M 16 43 C 15.449219 43 15 43.449219 15 44 C 15 44.550781 15.449219 45 16 45 C 16.550781 45 17 44.550781 17 44 C 17 43.449219 16.550781 43 16 43 Z M 27 46 C 26.449219 46 26 46.449219 26 47 C 26 47.550781 26.449219 48 27 48 C 27.550781 48 28 47.550781 28 47 C 28 46.449219 27.550781 46 27 46 Z M 16 47 C 15.449219 47 15 47.449219 15 48 C 15 48.550781 15.449219 49 16 49 C 16.550781 49 17 48.550781 17 48 C 17 47.449219 16.550781 47 16 47 Z M 27 50 C 26.449219 50 26 50.449219 26 51 C 26 51.550781 26.449219 52 27 52 C 27.550781 52 28 51.550781 28 51 C 28 50.449219 27.550781 50 27 50 Z M 16 51 C 15.449219 51 15 51.449219 15 52 C 15 52.550781 15.449219 53 16 53 C 16.550781 53 17 52.550781 17 52 C 17 51.449219 16.550781 51 16 51 Z M 27 54 C 26.449219 54 26 54.449219 26 55 C 26 55.550781 26.449219 56 27 56 C 27.550781 56 28 55.550781 28 55 C 28 54.449219 27.550781 54 27 54 Z M 16 55 C 15.449219 55 15 55.449219 15 56 C 15 56.550781 15.449219 57 16 57 C 16.550781 57 17 56.550781 17 56 C 17 55.449219 16.550781 55 16 55 Z M 23 60 L 57 60 L 57 66 C 57 67.117188 56.117188 68 55 68 L 25 68 C 23.882812 68 23 67.117188 23 66 Z M 40 62 C 38.894531 62 38 62.894531 38 64 C 38 65.105469 38.894531 66 40 66 C 41.105469 66 42 65.105469 42 64 C 42 62.894531 41.105469 62 40 62 Z M 40 62 "></path></g></svg>