<svg xmlns="http://www.w3.org/2000/svg" xmlns:xlink="http://www.w3.org/1999/xlink" viewBox="0,0,256,256" width="80px" height="80px" fill-rule="nonzero"><g fill="#4ca8f7" fill-rule="nonzero" stroke="none" stroke-width="1" stroke-linecap="butt" stroke-linejoin="miter" stroke-miterlimit="10" stroke-dasharray="" stroke-dashoffset="0" font-family="none" font-weight="none" font-size="none" text-anchor="none" style="mix-blend-mode: normal"><g transform="scale(3.2,3.2)"><path d="M5,13v1v53h70v-54zM7,15h66v50h-66zM70.82031,23.9707c-0.25125,-0.045 -0.52,0.00516 -0.75,0.16016c-0.45,0.32 -0.56,0.93844 -0.25,1.39844c0.2,0.28 0.51031,0.43164 0.82031,0.43164c0.2,0 0.40008,-0.06164 0.58008,-0.18164c0.45,-0.32 0.56023,-0.93844 0.24023,-1.39844c-0.155,-0.225 -0.38938,-0.36516 -0.64063,-0.41016zM9.18555,23.97266c-0.25125,0.045 -0.48648,0.18797 -0.64648,0.41797c-0.31,0.45 -0.2,1.06867 0.25,1.38867c0.17,0.12 0.37031,0.18164 0.57031,0.18164c0.32,0 0.63031,-0.15164 0.82031,-0.43164c0.32,-0.45 0.21,-1.06867 -0.25,-1.38867c-0.225,-0.16 -0.49289,-0.21297 -0.74414,-0.16797zM67.46289,26.31055c-0.2525,-0.04375 -0.52195,0.00992 -0.75195,0.16992c-0.45,0.31 -0.56024,0.92867 -0.24023,1.38867c0.19,0.28 0.49836,0.41992 0.81836,0.41992c0.2,0 0.39031,-0.04992 0.57031,-0.16992c0.45,-0.32 0.56,-0.93844 0.25,-1.39844c-0.16,-0.225 -0.39398,-0.36641 -0.64648,-0.41016zM12.54297,26.3125c-0.2525,0.045 -0.48758,0.18797 -0.64258,0.41797c-0.32,0.45 -0.21,1.06867 0.25,1.38867c0.17,0.12 0.37031,0.18164 0.57031,0.18164c0.31,0 0.61836,-0.15164 0.81836,-0.43164c0.31,-0.45 0.2,-1.07867 -0.25,-1.38867c-0.225,-0.16 -0.49359,-0.21297 -0.74609,-0.16797zM64.10742,28.65039c-0.2525,-0.045 -0.52305,0.00516 -0.74805,0.16016c-0.45,0.32 -0.57,0.94039 -0.25,1.40039c0.19,0.27 0.51031,0.41992 0.82031,0.41992c0.2,0 0.40031,-0.05164 0.57031,-0.18164c0.45,-0.31 0.57,-0.92867 0.25,-1.38867c-0.155,-0.225 -0.39008,-0.36516 -0.64258,-0.41016zM15.89844,28.65234c-0.2525,0.045 -0.48844,0.18797 -0.64844,0.41797c-0.31,0.45 -0.2,1.07062 0.25,1.39063c0.18,0.12 0.38031,0.17969 0.57031,0.17969c0.32,0 0.63008,-0.14969 0.83008,-0.42969c0.31,-0.45 0.2,-1.08063 -0.25,-1.39063c-0.23,-0.16 -0.49945,-0.21297 -0.75195,-0.16797zM60.75195,30.99023c-0.2525,-0.045 -0.52195,0.00516 -0.75195,0.16016c-0.45,0.32 -0.56,0.93867 -0.25,1.38867c0.2,0.28 0.51008,0.43164 0.83008,0.43164c0.19,0 0.39031,-0.05164 0.57031,-0.18164c0.45,-0.31 0.56,-0.93867 0.25,-1.38867c-0.16,-0.225 -0.39594,-0.36516 -0.64844,-0.41016zM19.25586,30.99219c-0.25125,0.045 -0.48648,0.18797 -0.64648,0.41797c-0.32,0.45 -0.21,1.07062 0.25,1.39063c0.17,0.12 0.37031,0.17969 0.57031,0.17969c0.32,0 0.63031,-0.14969 0.82031,-0.42969c0.32,-0.45 0.21,-1.08063 -0.25,-1.39062c-0.225,-0.16 -0.49289,-0.21297 -0.74414,-0.16797zM57.39453,33.33008c-0.25125,-0.045 -0.51914,0.00516 -0.74414,0.16016c-0.46,0.32 -0.57,0.94062 -0.25,1.39063c0.19,0.28 0.50031,0.42969 0.82031,0.42969c0.2,0 0.39836,-0.05969 0.56836,-0.17969c0.45,-0.31 0.56,-0.94063 0.25,-1.39062c-0.16,-0.225 -0.39328,-0.36516 -0.64453,-0.41016zM22.60938,33.33203c-0.25125,0.04375 -0.48367,0.1832 -0.63867,0.4082c-0.32,0.46 -0.21,1.08039 0.25,1.40039c0.17,0.12 0.36859,0.17969 0.55859,0.17969c0.32,0 0.63008,-0.14969 0.83008,-0.42969c0.31,-0.45 0.2,-1.08062 -0.25,-1.39062c-0.23,-0.16 -0.49875,-0.21172 -0.75,-0.16797zM54.03711,35.66602c-0.2525,-0.04625 -0.52305,0.00406 -0.74805,0.16406c-0.45,0.32 -0.56,0.94062 -0.25,1.39063c0.2,0.28 0.51031,0.42969 0.82031,0.42969c0.2,0 0.40031,-0.05969 0.57031,-0.17969c0.46,-0.31 0.57,-0.94062 0.25,-1.39062c-0.155,-0.225 -0.39008,-0.36781 -0.64258,-0.41406zM25.9668,35.66992c-0.25125,0.045 -0.48648,0.18516 -0.64648,0.41016c-0.31,0.46 -0.2,1.08039 0.25,1.40039c0.18,0.12 0.38031,0.17969 0.57031,0.17969c0.32,0 0.63031,-0.14969 0.82031,-0.42969c0.32,-0.46 0.21,-1.08039 -0.25,-1.40039c-0.225,-0.155 -0.49289,-0.20516 -0.74414,-0.16016zM50.68164,38.00586c-0.2525,-0.04625 -0.52195,0.00406 -0.75195,0.16406c-0.45,0.32 -0.56023,0.94062 -0.24023,1.39063c0.19,0.28 0.50031,0.42969 0.82031,0.42969c0.2,0 0.39031,-0.05969 0.57031,-0.17969c0.45,-0.31 0.56,-0.94062 0.25,-1.39062c-0.16,-0.225 -0.39594,-0.36781 -0.64844,-0.41406zM29.32227,38.00977c-0.2525,0.045 -0.48758,0.18516 -0.64258,0.41016c-0.32,0.46 -0.2,1.08039 0.25,1.40039c0.17,0.12 0.37031,0.16992 0.57031,0.16992c0.31,0 0.63031,-0.14992 0.82031,-0.41992c0.32,-0.46 0.2,-1.08039 -0.25,-1.40039c-0.225,-0.155 -0.49555,-0.20516 -0.74805,-0.16016zM25,40c-0.55228,0 -1,0.44772 -1,1c0,0.55228 0.44772,1 1,1c0.55228,0 1,-0.44772 1,-1c0,-0.55228 -0.44772,-1 -1,-1zM55,40c-0.55228,0 -1,0.44772 -1,1c0,0.55228 0.44772,1 1,1c0.55228,0 1,-0.44772 1,-1c0,-0.55228 -0.44772,-1 -1,-1zM47.32422,40.3457c-0.25125,-0.04625 -0.51914,0.00406 -0.74414,0.16406c-0.45,0.31 -0.57,0.94063 -0.25,1.39063c0.19,0.28 0.50031,0.42969 0.82031,0.42969c0.2,0 0.40031,-0.05969 0.57031,-0.17969c0.45,-0.32 0.57,-0.94062 0.25,-1.39062c-0.16,-0.225 -0.39523,-0.36781 -0.64648,-0.41406zM32.67773,40.34961c-0.2525,0.045 -0.48844,0.18516 -0.64844,0.41016c-0.31,0.45 -0.2,1.08062 0.25,1.39063c0.18,0.13 0.38031,0.17969 0.57031,0.17969c0.32,0 0.63008,-0.14992 0.83008,-0.41992c0.31,-0.46 0.2,-1.08039 -0.25,-1.40039c-0.23,-0.155 -0.49945,-0.20516 -0.75195,-0.16016zM43.9668,42.68164c-0.2525,-0.045 -0.52109,0.00797 -0.74609,0.16797c-0.45,0.32 -0.56,0.94062 -0.25,1.39063c0.2,0.28 0.50836,0.42969 0.81836,0.42969c0.2,0 0.40008,-0.05969 0.58008,-0.17969c0.45,-0.32 0.56023,-0.94063 0.24023,-1.39062c-0.155,-0.23 -0.39008,-0.37297 -0.64258,-0.41797zM36.03711,42.68945c-0.25125,0.045 -0.48648,0.18516 -0.64648,0.41016c-0.31,0.45 -0.2,1.08062 0.25,1.39063c0.17,0.12 0.37031,0.17969 0.57031,0.17969c0.32,0 0.62836,-0.14969 0.81836,-0.42969c0.32,-0.45 0.21,-1.07062 -0.25,-1.39062c-0.225,-0.155 -0.49094,-0.20516 -0.74219,-0.16016zM22,43c-0.55228,0 -1,0.44772 -1,1c0,0.55228 0.44772,1 1,1c0.55228,0 1,-0.44772 1,-1c0,-0.55228 -0.44772,-1 -1,-1zM58,43c-0.55228,0 -1,0.44772 -1,1c0,0.55228 0.44772,1 1,1c0.55228,0 1,-0.44772 1,-1c0,-0.55228 -0.44772,-1 -1,-1zM40,44c-0.55,0 -1,0.45 -1,1c0,0.55 0.45,1 1,1c0.56,0 1,-0.45 1,-1c0,-0.56 -0.45,-1 -1,-1zM19,46c-0.55228,0 -1,0.44772 -1,1c0,0.55228 0.44772,1 1,1c0.55228,0 1,-0.44772 1,-1c0,-0.55228 -0.44772,-1 -1,-1zM61,46c-0.55228,0 -1,0.44772 -1,1c0,0.55228 0.44772,1 1,1c0.55228,0 1,-0.44772 1,-1c0,-0.55228 -0.44772,-1 -1,-1zM16,49c-0.55228,0 -1,0.44772 -1,1c0,0.55228 0.44772,1 1,1c0.55228,0 1,-0.44772 1,-1c0,-0.55228 -0.44772,-1 -1,-1zM64,49c-0.55228,0 -1,0.44772 -1,1c0,0.55228 0.44772,1 1,1c0.55228,0 1,-0.44772 1,-1c0,-0.55228 -0.44772,-1 -1,-1zM13,52c-0.55228,0 -1,0.44772 -1,1c0,0.55228 0.44772,1 1,1c0.55228,0 1,-0.44772 1,-1c0,-0.55228 -0.44772,-1 -1,-1zM67,52c-0.55228,0 -1,0.44772 -1,1c0,0.55228 0.44772,1 1,1c0.55228,0 1,-0.44772 1,-1c0,-0.55228 -0.44772,-1 -1,-1zM10,55c-0.55228,0 -1,0.44772 -1,1c0,0.55228 0.44772,1 1,1c0.55228,0 1,-0.44772 1,-1c0,-0.55228 -0.44772,-1 -1,-1zM70,55c-0.55228,0 -1,0.44772 -1,1c0,0.55228 0.44772,1 1,1c0.55228,0 1,-0.44772 1,-1c0,-0.55228 -0.44772,-1 -1,-1z"></path></g></g></svg>