<svg xmlns="http://www.w3.org/2000/svg" xmlns:xlink="http://www.w3.org/1999/xlink" viewBox="0 0 80 80" width="80px" height="80px"><g id="surface119294614"><path style=" stroke:none;fill-rule:nonzero;fill:rgb(29.803923%,65.882355%,96.862745%);fill-opacity:1;" d="M 31 12 C 27.144531 12 24 15.144531 24 19 C 24 22.855469 27.144531 26 31 26 C 34.855469 26 38 22.855469 38 19 C 38 15.144531 34.855469 12 31 12 Z M 49 12 C 45.144531 12 42 15.144531 42 19 C 42 22.855469 45.144531 26 49 26 C 52.855469 26 56 22.855469 56 19 C 56 15.144531 52.855469 12 49 12 Z M 31 14 C 33.773438 14 36 16.226562 36 19 C 36 21.773438 33.773438 24 31 24 C 28.226562 24 26 21.773438 26 19 C 26 16.226562 28.226562 14 31 14 Z M 49 14 C 51.773438 14 54 16.226562 54 19 C 54 21.773438 51.773438 24 49 24 C 46.226562 24 44 21.773438 44 19 C 44 16.226562 46.226562 14 49 14 Z M 18 24 C 13.59375 24 10 27.59375 10 32 C 10 36.40625 13.59375 40 18 40 C 22.40625 40 26 36.40625 26 32 C 26 27.59375 22.40625 24 18 24 Z M 62 24 C 57.59375 24 54 27.59375 54 32 C 54 36.40625 57.59375 40 62 40 C 66.40625 40 70 36.40625 70 32 C 70 27.59375 66.40625 24 62 24 Z M 18 26 C 21.324219 26 24 28.675781 24 32 C 24 35.324219 21.324219 38 18 38 C 14.675781 38 12 35.324219 12 32 C 12 28.675781 14.675781 26 18 26 Z M 62 26 C 65.324219 26 68 28.675781 68 32 C 68 35.324219 65.324219 38 62 38 C 58.675781 38 56 35.324219 56 32 C 56 31.792969 56.011719 31.585938 56.03125 31.386719 C 56.335938 28.351562 58.882812 26 62 26 Z M 40 31 C 35.042969 31 31 35.042969 31 40 C 31 44.957031 35.042969 49 40 49 C 44.957031 49 49 44.957031 49 40 C 49 35.042969 44.957031 31 40 31 Z M 40 33 C 43.878906 33 47 36.121094 47 40 C 47 43.878906 43.878906 47 40 47 C 36.121094 47 33 43.878906 33 40 C 33 36.121094 36.121094 33 40 33 Z M 18 42 C 10.304688 42 4 48.304688 4 56 L 4 60 L 26.269531 60 C 25.457031 61.839844 25 63.867188 25 66 L 25 70 L 55 70 L 55 66 C 55 63.867188 54.542969 61.839844 53.730469 60 L 76 60 L 76 56 C 76 48.304688 69.695312 42 62 42 C 56.875 42 52.375 44.796875 49.9375 48.9375 C 49.125 50.328125 48.554688 51.871094 48.253906 53.503906 C 45.882812 51.925781 43.046875 51 40 51 C 36.953125 51 34.117188 51.925781 31.746094 53.503906 C 30.554688 46.988281 24.839844 42 18 42 Z M 18 44 C 24.246094 44 29.378906 48.832031 29.921875 54.941406 C 28.933594 55.84375 28.066406 56.867188 27.347656 58 L 6 58 L 6 56 C 6 49.394531 11.394531 44 18 44 Z M 62 44 C 68.605469 44 74 49.394531 74 56 L 74 58 L 52.652344 58 C 51.933594 56.867188 51.066406 55.84375 50.078125 54.941406 C 50.621094 48.832031 55.753906 44 62 44 Z M 40 53 C 47.15625 53 53 58.84375 53 66 L 53 68 L 27 68 L 27 66 C 27 58.84375 32.84375 53 40 53 Z M 8 54 C 7.449219 54 7 54.449219 7 55 C 7 55.550781 7.449219 56 8 56 C 8.550781 56 9 55.550781 9 55 C 9 54.449219 8.550781 54 8 54 Z M 12 54 C 11.449219 54 11 54.449219 11 55 C 11 55.550781 11.449219 56 12 56 C 12.550781 56 13 55.550781 13 55 C 13 54.449219 12.550781 54 12 54 Z M 16 54 C 15.449219 54 15 54.449219 15 55 C 15 55.550781 15.449219 56 16 56 C 16.550781 56 17 55.550781 17 55 C 17 54.449219 16.550781 54 16 54 Z M 20 54 C 19.449219 54 19 54.449219 19 55 C 19 55.550781 19.449219 56 20 56 C 20.550781 56 21 55.550781 21 55 C 21 54.449219 20.550781 54 20 54 Z M 24 54 C 23.449219 54 23 54.449219 23 55 C 23 55.550781 23.449219 56 24 56 C 24.550781 56 25 55.550781 25 55 C 25 54.449219 24.550781 54 24 54 Z M 28 54 C 27.449219 54 27 54.449219 27 55 C 27 55.550781 27.449219 56 28 56 C 28.550781 56 29 55.550781 29 55 C 29 54.449219 28.550781 54 28 54 Z M 52 54 C 51.449219 54 51 54.449219 51 55 C 51 55.550781 51.449219 56 52 56 C 52.550781 56 53 55.550781 53 55 C 53 54.449219 52.550781 54 52 54 Z M 56 54 C 55.449219 54 55 54.449219 55 55 C 55 55.550781 55.449219 56 56 56 C 56.550781 56 57 55.550781 57 55 C 57 54.449219 56.550781 54 56 54 Z M 60 54 C 59.449219 54 59 54.449219 59 55 C 59 55.550781 59.449219 56 60 56 C 60.550781 56 61 55.550781 61 55 C 61 54.449219 60.550781 54 60 54 Z M 64 54 C 63.449219 54 63 54.449219 63 55 C 63 55.550781 63.449219 56 64 56 C 64.550781 56 65 55.550781 65 55 C 65 54.449219 64.550781 54 64 54 Z M 68 54 C 67.449219 54 67 54.449219 67 55 C 67 55.550781 67.449219 56 68 56 C 68.550781 56 69 55.550781 69 55 C 69 54.449219 68.550781 54 68 54 Z M 72 54 C 71.449219 54 71 54.449219 71 55 C 71 55.550781 71.449219 56 72 56 C 72.550781 56 73 55.550781 73 55 C 73 54.449219 72.550781 54 72 54 Z M 30 64 C 29.449219 64 29 64.449219 29 65 C 29 65.550781 29.449219 66 30 66 C 30.550781 66 31 65.550781 31 65 C 31 64.449219 30.550781 64 30 64 Z M 34 64 C 33.449219 64 33 64.449219 33 65 C 33 65.550781 33.449219 66 34 66 C 34.550781 66 35 65.550781 35 65 C 35 64.449219 34.550781 64 34 64 Z M 38 64 C 37.449219 64 37 64.449219 37 65 C 37 65.550781 37.449219 66 38 66 C 38.550781 66 39 65.550781 39 65 C 39 64.449219 38.550781 64 38 64 Z M 42 64 C 41.449219 64 41 64.449219 41 65 C 41 65.550781 41.449219 66 42 66 C 42.550781 66 43 65.550781 43 65 C 43 64.449219 42.550781 64 42 64 Z M 46 64 C 45.449219 64 45 64.449219 45 65 C 45 65.550781 45.449219 66 46 66 C 46.550781 66 47 65.550781 47 65 C 47 64.449219 46.550781 64 46 64 Z M 50 64 C 49.449219 64 49 64.449219 49 65 C 49 65.550781 49.449219 66 50 66 C 50.550781 66 51 65.550781 51 65 C 51 64.449219 50.550781 64 50 64 Z M 50 64 "></path></g></svg>